<svg xmlns="http://www.w3.org/2000/svg" viewBox="0 0 841.9 595.3">
<!DOCTYPE svg PUBLIC "-//W3C//DTD SVG 20010904//EN"
 "http://www.w3.org/TR/2001/REC-SVG-20010904/DTD/svg10.dtd">
<svg version="1.0" xmlns="http://www.w3.org/2000/svg"
 width="231.000000pt" height="140.000000pt" viewBox="0 0 231.000000 140.000000"
 preserveAspectRatio="xMidYMid meet">

<g transform="translate(0.000000,140.000000) scale(0.100000,-0.100000)"
fill="#000000" stroke="none">
<path d="M920 1332 c-20 -11 -44 -37 -58 -63 -13 -26 -34 -49 -51 -56 -16 -7
-40 -26 -55 -43 -21 -26 -26 -42 -26 -85 0 -41 -6 -63 -25 -91 -31 -46 -33
-106 -5 -151 11 -18 23 -33 27 -33 14 0 41 83 47 145 18 167 143 300 316 336
l54 11 -38 20 c-58 30 -142 34 -186 10z"/>
<path d="M1248 1335 c-62 -20 -67 -32 -17 -40 62 -11 173 -71 214 -116 20 -22
38 -39 40 -37 8 7 -16 103 -32 131 -40 68 -115 90 -205 62z"/>
<path d="M1069 1266 c-115 -31 -226 -135 -259 -244 -32 -102 -27 -108 33 -45
28 30 69 68 89 85 l37 29 -42 -83 c-50 -98 -76 -174 -84 -243 -5 -49 -4 -52
40 -101 117 -130 315 -165 459 -81 58 34 135 117 159 172 11 25 23 69 26 98
l6 52 -60 -60 c-32 -34 -73 -71 -89 -82 l-31 -22 47 94 c51 100 86 220 76 259
-3 13 -23 41 -45 64 -96 99 -238 142 -362 108z m161 -201 c55 -28 65 -76 25
-123 -23 -28 -24 -30 -6 -35 34 -9 55 -54 45 -94 -15 -59 -47 -75 -163 -81
l-101 -5 0 177 0 176 85 0 c57 0 96 -5 115 -15z"/>
<path d="M1080 985 l0 -45 58 0 c64 0 82 11 82 51 0 32 -14 39 -86 39 l-54 0
0 -45z"/>
<path d="M1080 835 l0 -55 64 0 c71 0 96 14 96 55 0 41 -25 55 -96 55 l-64 0
0 -55z"/>
<path d="M1570 980 c-13 -25 -20 -59 -20 -93 0 -173 -137 -333 -313 -366 l-42
-8 37 -17 c21 -9 61 -16 90 -16 69 0 113 27 139 84 13 29 27 46 43 50 13 3 38
22 55 41 29 33 36 58 31 112 -1 12 10 42 24 66 31 53 34 109 6 155 -11 17 -22
32 -25 32 -2 0 -14 -18 -25 -40z"/>
<path d="M840 638 c8 -53 29 -95 65 -128 23 -22 36 -25 93 -25 37 1 78 7 92
14 24 14 23 14 -30 28 -71 18 -130 53 -184 109 l-43 46 7 -44z"/>
<path d="M1700 250 c0 -5 5 -10 10 -10 6 0 10 5 10 10 0 6 -4 10 -10 10 -5 0
-10 -4 -10 -10z"/>
<path d="M380 130 l0 -120 75 0 c81 0 115 18 115 60 0 22 -33 60 -52 60 -7 0
-2 7 10 16 30 20 30 68 0 88 -15 11 -45 16 -85 16 l-63 0 0 -120z m121 90 c11
-6 19 -21 19 -35 0 -29 -26 -45 -74 -45 -36 0 -36 0 -36 45 0 45 0 45 36 45
19 0 44 -5 55 -10z m24 -114 c16 -12 18 -19 10 -43 -10 -26 -15 -28 -68 -31
l-57 -3 0 46 0 45 48 0 c27 0 57 -6 67 -14z"/>
<path d="M1269 222 c-61 -55 -46 -177 25 -207 20 -8 46 -15 59 -15 26 0 88 38
95 58 6 19 -23 14 -43 -8 -18 -20 -66 -27 -100 -14 -23 9 -45 57 -45 99 0 27
8 44 29 66 35 35 77 38 115 8 38 -30 57 -19 24 14 -22 22 -36 27 -77 27 -41 0
-57 -5 -82 -28z"/>
<path d="M630 170 c-26 -26 -28 -108 -2 -139 25 -32 81 -38 112 -13 31 25 20
40 -12 18 -12 -9 -30 -16 -39 -16 -20 0 -49 31 -49 53 0 14 11 17 66 17 l67 0
-6 37 c-4 21 -14 44 -24 50 -27 20 -90 16 -113 -7z m88 -6 c12 -8 22 -24 22
-35 0 -16 -7 -19 -50 -19 -43 0 -50 3 -50 19 0 17 33 51 50 51 3 0 16 -7 28
-16z"/>
<path d="M830 170 c-26 -26 -28 -108 -2 -139 25 -32 81 -38 112 -13 31 25 20
40 -12 18 -12 -9 -30 -16 -39 -16 -20 0 -49 31 -49 53 0 14 11 17 66 17 l67 0
-6 37 c-4 21 -14 44 -24 50 -27 20 -90 16 -113 -7z m88 -6 c12 -8 22 -24 22
-35 0 -16 -7 -19 -50 -19 -43 0 -50 3 -50 19 0 17 33 51 50 51 3 0 16 -7 28
-16z"/>
<path d="M1020 100 c0 -53 4 -90 10 -90 6 0 10 22 10 49 0 62 15 101 40 108
11 3 20 9 20 14 0 16 -32 10 -46 -8 -13 -17 -13 -17 -14 0 0 9 -4 17 -10 17
-6 0 -10 -37 -10 -90z"/>
<path d="M1510 170 c-31 -31 -28 -113 6 -147 21 -21 32 -24 62 -19 51 8 72 37
72 97 0 63 -23 89 -80 89 -27 0 -47 -7 -60 -20z m88 -6 c18 -12 22 -25 22 -64
0 -52 -17 -80 -50 -80 -33 0 -50 28 -50 80 0 39 4 52 22 64 12 9 25 16 28 16
3 0 16 -7 28 -16z"/>
<path d="M1700 100 c0 -53 4 -90 10 -90 6 0 10 37 10 90 0 53 -4 90 -10 90 -6
0 -10 -37 -10 -90z"/>
<path d="M1780 100 c0 -53 4 -90 10 -90 6 0 10 25 10 55 0 76 15 105 55 105
38 0 45 -15 45 -102 0 -32 5 -58 10 -58 15 0 13 153 -2 168 -17 17 -68 15 -90
-5 -17 -15 -18 -15 -18 0 0 10 -4 17 -10 17 -6 0 -10 -37 -10 -90z"/>
</g>
</svg>
</svg>